<svg width="64" height="32" viewBox="0 0 64 32" fill="none" xmlns="http://www.w3.org/2000/svg">
<path opacity="0.1" fill-rule="evenodd" clip-rule="evenodd" d="M32 16C32 7.16344 39.1634 0 48 0C56.8366 0 64 7.16344 64 16C64 24.8366 56.8366 32 48 32C39.1634 32 32 24.8366 32 16Z" fill="#80ADF5"/>
<path fill-rule="evenodd" clip-rule="evenodd" d="M54.6676 10.4995C55.402 10.701 55.9803 11.2948 56.1766 12.0488C56.5332 13.4153 56.5332 16.2666 56.5332 16.2666C56.5332 16.2666 56.5332 19.1178 56.1766 20.4845C55.9803 21.2385 55.402 21.8322 54.6676 22.0338C53.3368 22.4 47.9999 22.4 47.9999 22.4C47.9999 22.4 42.663 22.4 41.3321 22.0338C40.5977 21.8322 40.0194 21.2385 39.8231 20.4845C39.4666 19.1178 39.4666 16.2666 39.4666 16.2666C39.4666 16.2666 39.4666 13.4153 39.8231 12.0488C40.0194 11.2948 40.5977 10.701 41.3321 10.4995C42.663 10.1333 47.9999 10.1333 47.9999 10.1333C47.9999 10.1333 53.3368 10.1333 54.6676 10.4995ZM46.3999 13.8666V19.1999L50.6666 16.5333L46.3999 13.8666Z" fill="#80ADF5"/>
</svg>
